<?xml version="1.0" encoding="UTF-8"?>
<svg viewBox="0 0 129.4375 47.1875" xmlns="http://www.w3.org/2000/svg">
 <g transform="translate(-72.156 -57.375)">
  <path d="m86.69 58.134h100.38a13.769 13.769 0 0 1 13.769 13.769v18.129a13.769 13.769 0 0 1 -13.769 13.769h-100.38a13.769 13.769 0 0 1 -13.769 -13.769v-18.129a13.769 13.769 0 0 1 13.769 -13.769" fill="#e0e0e0" stroke="#050505" stroke-linecap="square" stroke-width="1.5"/>
  <g transform="translate(80)">
   <path d="m33.482 64.26h49.18c7.5117 0 14.275 5.7557 11.751 11.765l-4.1657 9.9181c-2.5239 6.0093-4.2393 11.765-11.751 11.765h-40.849c-7.5117 0-8.5039-5.7557-11.028-11.765l-4.1657-9.9181c-2.524-6.0093 3.5161-11.765 11.028-11.765z" fill="#1a1a1a"/>
   <path d="m34.918 66.879h45.411c11.654 0 11.937 4.6132 10.09 9.5156l-4.4869 11.911c-1.9952 5.2965-4.8892 6.5553-9.45 6.5553h-37.718c-4.1807 0-6.1688-1.0328-7.8813-5.443l-5.057-13.023c-1.8668-4.8077-0.78965-9.5156 9.0918-9.5156z" fill="#b2b2b2"/>
   <path d="m37.331 68.6h41.489c10.33 0 10.416 5.4582 9.2188 8.6291l-3.8614 10.226c-1.7292 4.5793-4.7048 5.8513-8.8716 5.8513h-34.46c-3.8196 0-6.128-0.33911-7.9143-4.8964l-4.3822-11.181c-1.6285-4.1548-0.24559-8.6291 8.7823-8.6291z" fill="#3e4ac4" stroke="#1e3332"/>
   <path transform="matrix(1.183 0 0 1.183 -104.16 -16.762)" d="m122.09 78.568c0 1.5581-1.2631 2.8212-2.8212 2.8212s-2.8212-1.2631-2.8212-2.8212 1.2631-2.8212 2.8212-2.8212 2.8212 1.2631 2.8212 2.8212z" fill="#707070" stroke="#0d1010" stroke-linecap="square"/>
   <path transform="matrix(1.183 0 0 1.183 -61.117 -16.762)" d="m122.09 78.568c0 1.5581-1.2631 2.8212-2.8212 2.8212s-2.8212-1.2631-2.8212-2.8212 1.2631-2.8212 2.8212-2.8212 2.8212 1.2631 2.8212 2.8212z" fill="#707070" stroke="#0d1010" stroke-linecap="square"/>
   <path transform="matrix(1.183 0 0 1.183 -71.878 -16.762)" d="m122.09 78.568c0 1.5581-1.2631 2.8212-2.8212 2.8212s-2.8212-1.2631-2.8212-2.8212 1.2631-2.8212 2.8212-2.8212 2.8212 1.2631 2.8212 2.8212z" fill="#707070" stroke="#0d1010" stroke-linecap="square"/>
   <path transform="matrix(1.183 0 0 1.183 -93.401 -16.762)" d="m122.09 78.568c0 1.5581-1.2631 2.8212-2.8212 2.8212s-2.8212-1.2631-2.8212-2.8212 1.2631-2.8212 2.8212-2.8212 2.8212 1.2631 2.8212 2.8212z" fill="#707070" stroke="#0d1010" stroke-linecap="square"/>
   <path transform="matrix(1.183 0 0 1.183 -82.64 -16.762)" d="m122.09 78.568c0 1.5581-1.2631 2.8212-2.8212 2.8212s-2.8212-1.2631-2.8212-2.8212 1.2631-2.8212 2.8212-2.8212 2.8212 1.2631 2.8212 2.8212z" fill="#707070" stroke="#0d1010" stroke-linecap="square"/>
   <path transform="matrix(1.183 0 0 1.183 -66.498 -6.7618)" d="m122.09 78.568c0 1.5581-1.2631 2.8212-2.8212 2.8212s-2.8212-1.2631-2.8212-2.8212 1.2631-2.8212 2.8212-2.8212 2.8212 1.2631 2.8212 2.8212z" fill="#707070" stroke="#0d1010" stroke-linecap="square"/>
   <path transform="matrix(1.183 0 0 1.183 -77.259 -6.7618)" d="m122.09 78.568c0 1.5581-1.2631 2.8212-2.8212 2.8212s-2.8212-1.2631-2.8212-2.8212 1.2631-2.8212 2.8212-2.8212 2.8212 1.2631 2.8212 2.8212z" fill="#707070" stroke="#0d1010" stroke-linecap="square"/>
   <path transform="matrix(1.183 0 0 1.183 -98.782 -6.7618)" d="m122.09 78.568c0 1.5581-1.2631 2.8212-2.8212 2.8212s-2.8212-1.2631-2.8212-2.8212 1.2631-2.8212 2.8212-2.8212 2.8212 1.2631 2.8212 2.8212z" fill="#707070" stroke="#0d1010" stroke-linecap="square"/>
   <path transform="matrix(1.183 0 0 1.183 -88.02 -6.7618)" d="m122.09 78.568c0 1.5581-1.2631 2.8212-2.8212 2.8212s-2.8212-1.2631-2.8212-2.8212 1.2631-2.8212 2.8212-2.8212 2.8212 1.2631 2.8212 2.8212z" fill="#707070" stroke="#0d1010" stroke-linecap="square"/>
  </g>
  <path transform="matrix(3.2716 0 0 3.2716 -431.62 -192.1)" d="m191.58 83.472c0 1.4382-1.1659 2.6042-2.6042 2.6042s-2.6042-1.1659-2.6042-2.6042 1.1659-2.6042 2.6042-2.6042 2.6042 1.1659 2.6042 2.6042z" fill="#818181" stroke="#090909" stroke-linecap="square" stroke-width=".45849"/>
  <path transform="matrix(1.3716 0 0 1.3716 -72.565 -33.505)" d="m191.58 83.472c0 1.4382-1.1659 2.6042-2.6042 2.6042s-2.6042-1.1659-2.6042-2.6042 1.1659-2.6042 2.6042-2.6042 2.6042 1.1659 2.6042 2.6042z" fill="#2b2b2b" stroke="#181818" stroke-linecap="square" stroke-width=".72908"/>
  <path transform="matrix(3.2716 0 0 3.2716 -528.66 -192.1)" d="m191.58 83.472c0 1.4382-1.1659 2.6042-2.6042 2.6042s-2.6042-1.1659-2.6042-2.6042 1.1659-2.6042 2.6042-2.6042 2.6042 1.1659 2.6042 2.6042z" fill="#818181" stroke="#090909" stroke-linecap="square" stroke-width=".45849"/>
  <path transform="matrix(1.3716 0 0 1.3716 -169.61 -33.505)" d="m191.58 83.472c0 1.4382-1.1659 2.6042-2.6042 2.6042s-2.6042-1.1659-2.6042-2.6042 1.1659-2.6042 2.6042-2.6042 2.6042 1.1659 2.6042 2.6042z" fill="#2b2b2b" stroke="#181818" stroke-linecap="square" stroke-width=".72908"/>
 </g>
</svg>
